Coordinates
version=1
nRows=7
nColumns=63
inDegrees=yes

Units are S.I. units (second, meters, Newtons, ...)
If the header above contains a line with 'inDegrees', this indicates whether rotational values are in degrees (yes) or radians (no).

endheader
time	pelvis_tilt	pelvis_list	pelvis_rotation	pelvis_tx	pelvis_ty	pelvis_tz	hip_flexion_r	hip_adduction_r	hip_rotation_r	knee_angle_r	knee_angle_r_beta	ankle_angle_r	subtalar_angle_r	mtp_angle_r	hip_flexion_l	hip_adduction_l	hip_rotation_l	knee_angle_l	knee_angle_l_beta	ankle_angle_l	subtalar_angle_l	mtp_angle_l	L5_S1_Flex_Ext	L5_S1_Lat_Bending	L5_S1_axial_rotation	L4_L5_Flex_Ext	L4_L5_Lat_Bending	L4_L5_axial_rotation	L3_L4_Flex_Ext	L3_L4_Lat_Bending	L3_L4_axial_rotation	L2_L3_Flex_Ext	L2_L3_Lat_Bending	L2_L3_axial_rotation	L1_L2_Flex_Ext	L1_L2_Lat_Bending	L1_L2_axial_rotation	L1_T12_Flex_Ext	L1_T12_Lat_Bending	L1_T12_axial_rotation	Abs_r3	Abs_r2	Abs_r1	Abs_t1	Abs_t2	neck_flexion	neck_bending	neck_rotation	arm_flex_r	arm_add_r	arm_rot_r	elbow_flex_r	pro_sup_r	wrist_flex_r	wrist_dev_r	arm_flex_l	arm_add_l	arm_rot_l	elbow_flex_l	pro_sup_l	wrist_flex_l	wrist_dev_l
      1.71186441	      1.16553801	     -7.23321795	     87.31221451	      0.14683483	      0.63701966	      0.78338388	     14.15993256	      0.52917230	     -1.75963734	     15.76950089	      0.27522971	     36.57543178	      6.15433672	      0.00000000	     10.68288441	      0.33826474	     -6.06088792	      8.52593935	      0.14880571	     33.83100064	      3.00613529	      0.00000000	      0.09182279	     -0.04506370	      0.51338271	      0.17052410	     -0.05993472	      0.54546913	      0.15085566	     -0.10956788	      0.54546913	      0.10494427	     -0.10956788	      0.44920987	      0.08526664	     -0.09189390	      0.41712345	      0.05246754	     -0.06980367	      0.38503703	      0.65588101	     -0.50976959	      2.85528060	      0.00000000	      0.00000000	      9.08224255	     -3.41350373	      1.52456461	      7.11280685	     -7.54912541	     41.47784882	     45.87429396	     58.63939514	      2.81379955	     18.85472113	     16.13022936	     -5.38118342	     68.86830963	     42.26082781	     79.23059351	    -16.88654986	      2.75369138
      1.72881356	      1.35961709	     -7.43243966	     87.55838050	      0.14632548	      0.63660151	      0.78328511	     14.32108634	      0.71356433	     -1.78038802	     15.75234861	      0.27493035	     36.42038068	      5.55716964	      0.00000000	     10.92072594	      0.20159250	     -5.43155497	      8.55229701	      0.14926574	     33.86220641	      2.60147206	      0.00000000	      0.10067498	      0.01411509	      0.31010291	      0.18696351	      0.01877307	      0.32948434	      0.16539893	      0.03431944	      0.32948434	      0.11506144	      0.03431944	      0.27134004	      0.09348679	      0.02878350	      0.25195861	      0.05752568	      0.02186428	      0.23257718	      0.71911133	      0.15967275	      1.72469935	      0.00000000	      0.00000000	      9.28745025	     -3.91082778	      4.23403455	      7.60506364	     -7.90050038	     43.05264453	     45.45406684	     58.42300334	      4.02395663	     18.12304477	     15.28038942	     -5.51624258	     67.77007109	     42.26123283	     80.12150380	    -18.94410773	      0.61756131
      1.74576271	      1.43089696	     -7.47052182	     87.69247613	      0.14616293	      0.63640776	      0.78318040	     14.30183824	      0.79480040	     -1.76419678	     15.67507706	      0.27358171	     36.26508170	      5.08392986	      0.00000000	     10.94752532	      0.18953372	     -4.92263946	      8.51335959	      0.14858616	     33.88095127	      2.04665550	      0.00000000	      0.09939949	      0.03153238	      0.25201016	      0.18459479	      0.04193807	      0.26776079	      0.16330342	      0.07666783	      0.26776079	      0.11360368	      0.07666783	      0.22050889	      0.09230237	      0.06430083	      0.20475825	      0.05679687	      0.04884366	      0.18900762	      0.71000062	      0.35670061	      1.40160489	      0.00000000	      0.00000000	      9.26631423	     -4.28370178	      4.44912220	      8.12040551	     -8.34659345	     44.91350221	     45.09452319	     57.74655438	      4.85130415	     17.12088167	     15.17260318	     -5.62910186	     68.13779470	     42.17567959	     81.36179612	    -19.66288983	      0.03716625
      1.76271186	      1.40062680	     -7.49793609	     87.73321827	      0.14622199	      0.63618677	      0.78314762	     14.30899081	      0.83686993	     -1.29112692	     15.63023479	      0.27279906	     36.12015239	      4.30097289	      0.00000000	     10.89232000	      0.33887968	     -3.48187552	      8.32973388	      0.14538128	     33.55130107	      0.19875129	      0.00000000	      0.10609323	      0.03237435	      0.22775458	      0.19702573	      0.04305788	      0.24198924	      0.17430056	      0.07871499	      0.24198924	      0.12125395	      0.07871499	      0.19928526	      0.09851817	      0.06601777	      0.18505059	      0.06062167	      0.05014787	      0.17081593	      0.75781331	      0.36622511	      1.26670264	      0.00000000	      0.00000000	      9.09935367	     -4.53487064	      4.50733306	      8.87331751	     -8.93590212	     47.99157899	     44.88759756	     53.20950591	      4.44189413	     15.95272848	     15.12632010	     -5.80486414	     68.72111840	     42.25334509	     82.79682458	    -20.50137236	      0.17775952
      1.77966102	      1.43090772	     -7.48986440	     87.77432701	      0.14605997	      0.63595966	      0.78327705	     14.30745589	      0.84654157	     -1.44781659	     15.62985580	      0.27279245	     36.11584442	      4.36122313	      0.00000000	     10.87839623	      0.32789917	     -3.57083637	      8.33374405	      0.14545127	     33.56684310	      0.15924363	      0.00000000	      0.10555154	      0.04184850	      0.25078161	      0.19601976	      0.05565850	      0.26645546	      0.17341062	      0.10175043	      0.26645546	      0.12063485	      0.10175043	      0.21943391	      0.09801516	      0.08533745	      0.20376006	      0.06031215	      0.06482332	      0.18808621	      0.75394409	      0.47339855	      1.39477210	      0.00000000	      0.00000000	      8.93770488	     -4.95264932	      4.12175366	      9.15131220	     -9.30278420	     48.80981683	     44.92629003	     52.84457661	      4.79096535	     15.99110467	     15.28715600	     -5.78375967	     69.61082965	     42.11874295	     83.85109886	    -20.58695966	      0.05459011
      1.79661017	      1.51511277	     -7.52218159	     87.82565059	      0.14583731	      0.63563288	      0.78341717	     14.37843435	      0.91628954	     -1.57880602	     15.69981849	      0.27401352	     36.15917317	      4.40043097	      0.00000000	     11.00901443	      0.24093964	     -3.72595367	      8.57325996	      0.14963161	     33.60756495	      0.17604037	      0.00000000	      0.10834020	      0.05603494	      0.27622652	      0.20119858	      0.07452647	      0.29349068	      0.17799211	      0.13624335	      0.29349068	      0.12382201	      0.13624335	      0.24169821	      0.10060471	      0.11426644	      0.22443405	      0.06190559	      0.08679812	      0.20716989	      0.77386320	      0.63387842	      1.53628904	      0.00000000	      0.00000000	      8.97099031	     -5.43977992	      3.42661792	      9.32585556	     -9.77944849	     49.66436672	     45.19262421	     51.65826510	      4.92584908	     15.69227152	     15.58411444	     -5.74284082	     71.10627092	     41.99041291	     84.83440291	    -21.61419287	     -0.15977569
      1.81355932	      1.48057021	     -7.42590070	     87.85004777	      0.14555003	      0.63553985	      0.78337319	     14.24851340	      0.86381106	     -1.57526729	     15.68369047	      0.27373204	     36.19873454	      4.47056038	      0.00000000	     10.81079103	      0.30242248	     -3.96857697	      8.45690315	      0.14760080	     33.48651579	      0.24857222	      0.00000000	      0.08795773	      0.06158913	      0.26415341	      0.16334630	      0.08191355	      0.28066299	      0.14450576	      0.14974782	      0.28066299	      0.10052689	      0.14974782	      0.23113423	      0.08167755	      0.12559256	      0.21462464	      0.05025905	      0.09540157	      0.19811505	      0.62827327	      0.69670860	      1.46914200	      0.00000000	      0.00000000	      8.90555164	     -5.77812197	      3.28387319	      9.24994859	     -9.93135014	     49.54708903	     45.49224415	     51.33106423	      4.67208854	     15.82018216	     15.65031449	     -5.80225593	     71.74621959	     42.04580211	     85.50365569	    -21.87089313	     -0.43376949
